<?xml version="1.0" standalone="no"?>
<!DOCTYPE svg PUBLIC "-//W3C//DTD SVG 20010904//EN"
 "http://www.w3.org/TR/2001/REC-SVG-20010904/DTD/svg10.dtd">
<svg version="1.0" xmlns="http://www.w3.org/2000/svg"
 width="1600.000000pt" height="1600.000000pt" viewBox="0 0 1600.000000 1600.000000"
 preserveAspectRatio="xMidYMid meet">
<metadata>
Created by potrace 1.14, written by Peter Selinger 2001-2017
</metadata>
<g transform="translate(0.000000,1600.000000) scale(0.100000,-0.100000)"
fill="#000000" stroke="none">
<path d="M12468 14135 c-3 -2 -131 -14 -185 -18 -13 0 -23 -4 -23 -8 0 -4 -15
-10 -32 -13 -18 -4 -40 -8 -48 -10 -30 -6 -126 -57 -155 -82 -75 -64 -175
-167 -175 -179 0 -4 -11 -21 -24 -38 -89 -119 -134 -340 -98 -492 6 -27 14
-63 17 -80 7 -48 84 -233 108 -264 6 -7 12 -20 13 -29 2 -8 8 -18 14 -22 6 -4
-57 -72 -151 -166 -89 -87 -284 -280 -433 -427 -149 -148 -280 -275 -291 -283
-11 -8 -176 -168 -366 -357 -190 -188 -355 -350 -367 -361 -20 -18 -22 -18
-54 5 -18 13 -34 27 -36 31 -2 4 -10 8 -18 8 -8 0 -14 5 -14 10 0 6 -5 10 -12
10 -6 0 -21 8 -32 18 -35 31 -284 174 -401 231 -60 29 -122 59 -137 67 -16 8
-28 12 -28 8 0 -3 -6 -2 -12 3 -11 8 -122 56 -138 59 -3 0 -18 6 -33 12 -16 7
-34 12 -41 12 -6 0 -16 4 -21 9 -6 6 -22 12 -37 15 -25 4 -54 13 -128 37 -45
15 -234 61 -265 65 -16 2 -51 9 -76 15 -26 6 -64 12 -85 14 -22 2 -50 6 -64
10 -14 3 -52 7 -85 10 -33 2 -85 7 -115 11 -66 8 -466 9 -565 1 -82 -7 -157
-15 -202 -22 -18 -3 -50 -8 -70 -11 -153 -23 -492 -106 -588 -144 -11 -4 -92
-36 -180 -70 -88 -35 -161 -67 -163 -72 -2 -4 -9 -8 -14 -8 -16 0 -216 -103
-281 -144 -31 -20 -59 -36 -62 -36 -3 0 -60 -37 -128 -83 -67 -46 -127 -86
-133 -90 -6 -3 -172 154 -378 358 -202 201 -372 365 -377 365 -5 0 -68 59
-141 130 -73 72 -136 130 -140 130 -4 0 -8 4 -8 9 0 4 -50 57 -111 117 -380
371 -429 422 -414 434 8 7 13 16 10 20 -2 4 4 18 15 30 11 12 17 26 15 30 -3
5 -2 10 3 12 10 4 62 125 69 158 2 13 8 29 12 35 5 5 7 20 6 33 -1 12 2 22 7
22 4 0 7 3 6 8 -1 4 2 30 6 57 13 78 14 150 4 202 -5 26 -10 58 -10 71 0 12
-3 22 -7 22 -4 0 -7 9 -8 20 -3 35 -68 157 -113 213 -68 84 -216 217 -241 217
-4 0 -20 5 -36 11 -15 6 -30 10 -33 11 -3 0 -9 3 -15 8 -5 4 -26 11 -45 15
-19 4 -39 10 -44 13 -17 10 -99 16 -211 15 -127 -1 -169 -6 -208 -22 -16 -6
-31 -11 -34 -11 -13 0 -118 -53 -131 -66 -7 -8 -23 -19 -34 -25 -35 -19 -69
-53 -118 -119 -47 -65 -113 -190 -113 -216 0 -8 -3 -14 -7 -14 -4 0 -7 -6 -8
-12 0 -7 -4 -26 -8 -43 -4 -16 -7 -38 -8 -47 0 -10 -3 -18 -6 -18 -4 0 -7 -34
-8 -75 0 -41 -3 -79 -6 -84 -3 -5 -34 -9 -68 -9 -79 0 -156 -10 -183 -24 -11
-6 -22 -11 -25 -11 -21 2 -132 -54 -167 -85 -17 -15 -39 -34 -50 -42 -27 -23
-92 -104 -92 -114 1 -5 -4 -12 -9 -15 -18 -12 -80 -157 -93 -216 -7 -33 -14
-67 -17 -75 -7 -24 -6 -223 1 -250 3 -14 10 -41 15 -60 5 -19 16 -49 25 -66 9
-17 13 -34 10 -38 -4 -3 -1 -6 5 -6 7 0 12 -5 12 -11 0 -17 58 -97 108 -147
68 -69 138 -121 185 -138 9 -3 17 -10 17 -15 0 -5 7 -9 15 -9 8 0 30 -9 49
-19 19 -11 37 -17 40 -14 3 4 6 1 6 -6 0 -7 4 -10 9 -7 5 3 24 -1 44 -9 37
-15 136 -30 202 -30 99 1 259 31 318 61 15 8 27 12 27 10 0 -3 16 2 35 10 35
14 37 14 71 -18 49 -45 183 -176 407 -394 103 -101 193 -184 199 -184 6 0 9
-2 6 -5 -5 -5 160 -175 170 -175 3 0 47 -42 99 -92 51 -51 124 -122 162 -158
39 -36 156 -148 261 -250 104 -102 190 -183 190 -181 0 3 16 -12 35 -33 38
-42 41 -51 23 -63 -7 -4 -24 -28 -37 -53 -14 -25 -27 -47 -31 -50 -9 -7 -121
-202 -123 -215 -1 -5 -6 -13 -10 -16 -5 -3 -9 -13 -11 -21 -1 -8 -9 -27 -19
-41 -9 -15 -17 -28 -17 -31 0 -3 -15 -38 -34 -78 -60 -130 -70 -153 -73 -172
-2 -11 -7 -24 -12 -30 -5 -6 -14 -29 -21 -51 -7 -22 -16 -45 -21 -51 -5 -6 -6
-14 -3 -17 3 -3 2 -12 -2 -19 -5 -7 -9 -19 -11 -27 -2 -19 -21 -29 -49 -26
-13 1 -24 -1 -24 -5 0 -4 -17 -10 -37 -13 -38 -6 -64 -11 -113 -23 -62 -15
-116 -26 -130 -28 -9 -1 -21 -5 -28 -10 -6 -4 -12 -5 -12 -2 0 3 -11 1 -25 -4
-14 -5 -36 -12 -48 -14 -44 -10 -63 -14 -107 -26 -25 -7 -51 -13 -57 -13 -7 0
-13 -4 -13 -9 0 -5 -4 -7 -9 -4 -4 3 -38 -3 -74 -13 -37 -10 -69 -16 -72 -13
-3 3 -5 0 -5 -7 0 -7 -6 -11 -12 -8 -7 2 -29 -2 -48 -9 -19 -8 -44 -15 -55
-17 -11 -2 -27 -7 -35 -10 -33 -12 -166 -50 -177 -50 -7 0 -13 -3 -13 -7 0 -4
-6 -7 -12 -7 -22 -1 -242 -75 -256 -86 -7 -5 -15 -7 -19 -4 -3 4 -11 3 -17 -2
-6 -4 -38 -18 -71 -29 -34 -11 -72 -25 -85 -30 -14 -5 -45 -18 -70 -27 -25
-10 -58 -23 -75 -31 -25 -11 -54 -22 -75 -29 -3 -1 -36 -16 -73 -33 -38 -18
-72 -32 -77 -32 -4 0 -13 -7 -20 -15 -7 -9 -15 -14 -17 -11 -2 2 -34 -13 -71
-33 -37 -20 -85 -45 -107 -55 -22 -11 -42 -22 -45 -25 -6 -8 -61 -33 -78 -37
-8 -1 -20 -11 -28 -21 -7 -10 -14 -15 -14 -11 0 9 -78 -30 -86 -43 -3 -5 -14
-9 -24 -9 -10 0 -20 -3 -22 -7 -1 -5 -29 -21 -60 -37 -64 -32 -72 -43 -29 -40
15 1 50 -4 77 -11 27 -7 67 -15 89 -18 22 -3 54 -10 72 -15 17 -6 34 -8 36 -5
3 2 22 0 43 -6 39 -10 61 -14 139 -27 22 -3 43 -8 46 -10 3 -2 21 -6 40 -9 60
-10 144 -27 159 -33 8 -3 19 -4 23 -3 5 1 25 -3 46 -9 20 -5 53 -12 72 -14 19
-3 34 -5 34 -6 0 -1 18 -3 40 -5 22 -1 40 -3 40 -5 0 -1 11 -3 25 -6 14 -2 41
-7 60 -10 49 -10 68 -13 120 -18 25 -3 45 -6 45 -7 0 -2 24 -6 70 -12 17 -3
47 -7 68 -11 20 -3 52 -8 70 -11 17 -3 43 -7 57 -10 14 -2 45 -7 70 -9 25 -3
56 -8 70 -11 14 -2 49 -7 79 -10 30 -3 64 -8 75 -10 41 -9 137 -21 229 -29 32
-3 61 -8 65 -10 4 -2 50 -7 102 -11 52 -4 98 -8 101 -10 3 -2 29 -5 57 -6 61
-3 59 2 67 -139 3 -52 7 -106 9 -120 4 -22 10 -67 22 -153 4 -33 10 -63 18
-97 6 -27 13 -61 26 -130 5 -25 16 -67 24 -94 8 -27 14 -52 14 -55 -1 -3 2
-13 5 -21 4 -8 20 -58 36 -110 36 -115 82 -243 90 -250 3 -3 6 -9 7 -15 1 -23
132 -290 164 -335 l20 -29 -126 -123 c-69 -68 -167 -163 -218 -213 -50 -49
-104 -100 -120 -112 -17 -13 -27 -23 -23 -23 4 0 -13 -19 -39 -42 -25 -24 -86
-81 -134 -128 -48 -47 -217 -211 -375 -365 -159 -154 -324 -314 -366 -355
-140 -137 -159 -152 -177 -144 -9 4 -19 8 -22 9 -3 1 -14 5 -25 9 -60 23 -75
28 -79 28 -3 -1 -27 5 -53 13 -128 36 -300 38 -413 4 -56 -17 -165 -63 -168
-71 -2 -5 -8 -8 -14 -8 -19 0 -114 -69 -173 -127 -66 -65 -108 -113 -98 -113
3 0 -1 -8 -9 -17 -20 -23 -64 -119 -72 -158 -4 -16 -10 -46 -15 -65 -8 -38 -7
-210 3 -250 5 -24 24 -103 26 -107 0 -2 3 -11 6 -20 10 -38 89 -186 111 -209
13 -14 23 -29 23 -35 0 -5 6 -9 13 -9 8 0 20 -11 27 -25 7 -14 18 -25 24 -25
6 0 21 -11 33 -23 37 -39 157 -92 253 -111 14 -3 35 -7 48 -10 12 -3 22 0 22
6 0 7 5 7 13 1 6 -5 33 -8 60 -8 36 1 47 -2 47 -14 4 -115 17 -215 32 -244 5
-10 11 -28 13 -39 8 -41 68 -154 116 -219 51 -69 120 -128 199 -170 25 -13 48
-28 52 -34 4 -5 8 -7 8 -3 0 4 19 0 42 -8 63 -22 112 -29 223 -29 122 0 224
13 262 33 10 6 21 10 26 10 22 1 107 39 147 66 74 50 195 178 237 251 20 34
60 119 67 142 7 23 14 50 23 98 8 42 7 173 -1 215 -4 19 -8 43 -9 53 -1 9 -4
17 -8 17 -3 0 -4 11 -2 24 3 13 0 27 -6 30 -6 4 -11 18 -11 31 0 13 -4 26 -9
29 -5 3 -12 17 -15 31 -9 35 -58 139 -68 143 -4 2 -8 12 -8 23 0 10 -4 19 -10
19 -34 0 14 57 208 247 321 315 412 407 412 415 0 5 4 8 9 8 5 0 90 80 189
178 261 256 633 617 640 620 4 1 30 -16 57 -39 28 -22 57 -46 65 -52 34 -27
160 -116 230 -161 41 -27 91 -60 111 -73 19 -12 38 -23 41 -23 3 0 35 -17 69
-38 92 -56 335 -173 364 -176 20 -3 7 -34 -44 -103 -28 -39 -51 -75 -51 -81 0
-6 -3 -12 -7 -14 -11 -4 -63 -118 -78 -168 -4 -14 -13 -38 -20 -55 -23 -54
-56 -143 -59 -156 -1 -8 -8 -32 -14 -54 -6 -22 -14 -57 -18 -79 -3 -21 -7 -47
-9 -58 -6 -29 -18 -169 -18 -208 -1 -61 14 -218 23 -250 5 -17 9 -34 9 -38 0
-12 22 -106 28 -122 3 -8 7 -19 8 -25 16 -65 118 -282 140 -297 5 -4 6 -8 2
-8 -4 0 3 -15 17 -33 15 -19 26 -37 26 -41 0 -4 6 -14 13 -21 6 -8 28 -35 47
-61 19 -26 78 -90 131 -143 133 -132 154 -151 167 -151 7 0 12 -4 12 -8 0 -10
115 -92 130 -92 5 0 10 -4 10 -10 0 -5 7 -10 15 -10 8 0 15 -3 15 -8 0 -6 63
-38 88 -44 4 -1 13 -8 20 -15 8 -7 18 -11 23 -8 5 4 9 1 9 -4 0 -6 7 -11 16
-11 8 0 25 -5 37 -12 12 -7 31 -13 41 -15 11 -2 24 -7 30 -12 12 -9 228 -66
286 -75 31 -5 192 -23 230 -26 8 0 116 -1 240 -2 293 -1 381 6 525 42 44 11
91 23 105 26 14 3 29 9 34 14 5 5 15 6 22 3 8 -3 14 1 14 8 0 7 3 9 7 6 3 -4
11 -2 18 3 6 5 20 11 31 13 30 5 173 82 244 131 71 50 98 74 223 201 134 137
147 151 147 165 0 6 3 10 8 10 9 1 59 81 52 84 -3 1 3 10 13 20 9 10 17 24 17
32 0 8 5 14 10 14 6 0 10 6 10 13 0 6 13 39 29 72 16 33 27 63 24 68 -2 4 0 7
5 7 9 0 27 47 24 63 -1 4 2 7 6 7 5 0 9 6 10 13 1 6 18 66 37 132 20 66 38
129 40 140 1 11 7 47 14 80 9 50 23 196 22 230 -8 185 -11 225 -32 325 -6 30
-11 61 -12 68 0 6 -4 12 -9 12 -5 0 -7 4 -4 9 19 30 -131 371 -195 443 -20 23
-44 67 -38 70 2 2 49 25 104 52 55 27 139 72 188 100 48 28 99 58 115 66 34
19 173 111 188 125 6 6 37 28 69 50 31 22 71 52 88 67 l32 28 55 -56 c30 -30
60 -58 65 -62 6 -4 23 -22 38 -40 15 -19 27 -31 27 -29 0 3 21 -17 48 -45 76
-80 477 -478 481 -478 2 0 83 -80 182 -177 98 -98 245 -244 326 -324 l148
-146 -30 -59 c-16 -33 -33 -60 -37 -62 -5 -2 -8 -11 -8 -21 0 -9 -7 -27 -16
-39 -8 -12 -13 -22 -10 -22 3 0 -3 -19 -13 -43 -10 -24 -21 -62 -25 -86 -3
-23 -8 -46 -10 -50 -17 -26 -23 -172 -12 -256 12 -89 56 -214 78 -223 4 -2 8
-10 8 -18 0 -23 151 -170 195 -189 22 -10 43 -17 48 -17 4 1 7 -2 7 -8 0 -5 7
-10 15 -10 8 0 15 -5 15 -10 0 -6 3 -9 8 -8 7 1 95 -35 126 -53 14 -8 16 -8
10 3 -6 11 -5 11 9 0 9 -8 22 -10 28 -6 7 4 9 3 5 -4 -4 -6 7 -13 26 -17 18
-4 38 -11 43 -15 44 -34 304 -33 368 1 9 5 17 7 17 4 0 -3 32 12 71 32 68 36
177 131 209 181 8 13 23 34 34 45 21 25 84 154 89 183 1 10 5 24 8 29 13 21
30 129 32 204 l2 54 70 0 c39 -1 96 5 128 12 31 7 57 10 57 7 0 -3 5 -1 12 6
7 7 20 12 29 12 10 0 25 7 33 16 9 8 16 13 16 9 0 -14 85 42 132 88 10 9 23
17 28 17 6 0 10 4 10 8 0 5 8 17 18 28 64 69 142 222 158 307 3 17 8 43 11 57
11 55 12 236 1 275 -6 22 -11 44 -10 48 3 12 -75 168 -101 201 -82 105 -207
199 -332 250 -95 39 -99 40 -155 51 -110 21 -146 22 -230 10 -30 -4 -64 -9
-75 -10 -11 -1 -27 -5 -35 -8 -17 -7 -91 -26 -102 -27 -4 0 -28 -9 -54 -20
-25 -11 -52 -20 -59 -20 -14 0 -47 32 -419 397 -108 106 -196 190 -196 187 0
-3 -16 14 -36 38 -20 23 -124 130 -232 236 -108 106 -240 235 -293 287 -52 52
-101 95 -108 95 -7 0 -9 4 -6 10 3 6 -2 10 -11 10 -10 0 -15 2 -12 5 3 4 -24
35 -59 70 l-66 64 42 65 c23 36 38 66 34 66 -5 0 -3 4 4 8 10 6 135 252 138
272 1 3 9 23 19 45 39 89 126 336 131 375 1 8 5 22 8 30 9 23 40 133 42 150 1
8 5 31 9 50 4 19 9 44 11 55 2 11 4 20 5 20 1 0 3 9 5 20 2 11 7 36 10 55 4
19 8 46 10 60 2 14 8 54 14 90 5 36 12 94 15 130 14 161 16 183 18 186 2 1 35
5 73 8 90 8 121 12 170 19 64 10 148 20 173 20 12 1 22 3 22 7 0 3 15 6 33 6
35 2 142 12 142 14 0 1 16 3 35 5 39 4 102 13 146 21 36 7 87 13 144 18 25 3
45 5 45 6 0 4 97 20 150 25 22 2 76 11 120 20 44 8 91 17 105 18 14 2 31 7 38
11 7 4 12 5 12 2 0 -3 21 1 48 9 26 8 65 16 88 20 22 3 55 10 72 15 18 5 32 6
32 3 0 -3 7 0 15 7 9 7 18 10 21 7 3 -3 21 -1 40 4 19 6 48 12 64 14 17 2 45
8 63 14 17 5 48 13 67 16 19 3 40 7 45 9 6 1 33 7 60 11 57 10 64 12 68 15 1
1 11 3 22 4 11 2 39 8 63 15 23 7 47 9 52 6 6 -3 10 -1 10 4 0 6 3 10 8 9 4
-1 27 2 52 7 25 4 54 9 65 11 11 1 20 3 20 4 0 1 9 3 21 5 11 3 31 8 45 14
l24 9 -30 8 c-16 4 -41 14 -55 23 -13 9 -25 15 -27 14 -3 -2 -59 20 -111 43
-18 9 -41 17 -51 19 -10 2 -27 8 -37 13 -18 10 -59 26 -79 32 -5 2 -38 16 -72
32 -35 15 -69 28 -78 28 -8 0 -15 4 -15 9 0 5 -16 12 -35 15 -19 4 -35 11 -35
17 0 6 -5 7 -10 4 -6 -4 -16 -3 -23 3 -7 5 -55 26 -107 47 -52 20 -106 42
-120 48 -14 6 -27 11 -30 12 -12 4 -48 19 -90 38 -25 11 -56 23 -70 28 -14 4
-70 24 -125 44 -55 20 -107 38 -115 40 -8 2 -34 10 -57 18 -22 9 -44 13 -47
10 -3 -4 -6 -1 -6 5 0 7 -3 11 -7 10 -5 -1 -47 10 -95 25 -48 16 -96 30 -107
32 -11 2 -28 8 -38 13 -10 6 -22 11 -28 11 -5 1 -28 6 -50 12 -22 6 -51 13
-64 16 -13 2 -32 8 -42 13 -10 6 -29 10 -43 10 -14 0 -26 4 -26 8 0 4 -8 8
-17 9 -10 0 -56 11 -103 23 -47 12 -92 24 -100 25 -8 2 -30 9 -49 14 -19 6
-37 9 -39 6 -3 -2 -13 0 -24 6 -11 6 -29 12 -41 15 -27 4 -103 20 -137 28 -14
3 -38 9 -55 12 -16 4 -39 8 -50 10 -11 1 -21 3 -22 4 -4 3 -12 5 -61 14 -34 6
-45 14 -53 34 -5 15 -12 34 -16 42 -3 8 -7 20 -8 25 -5 19 -67 170 -83 200 -9
17 -15 30 -13 30 2 0 -13 34 -33 77 -20 42 -36 81 -36 86 0 6 -3 12 -7 14 -5
2 -23 32 -42 68 -19 36 -43 79 -53 95 -9 17 -26 46 -37 66 -11 20 -40 66 -65
102 l-45 65 23 24 c13 13 68 66 123 118 203 194 519 501 704 683 105 103 191
187 193 187 1 0 85 82 187 183 303 298 419 407 435 407 8 0 28 -7 44 -15 16
-8 37 -16 47 -18 10 -1 24 -6 31 -11 7 -4 16 -5 19 -2 3 3 11 2 17 -3 17 -13
126 -34 183 -35 18 -1 33 -3 33 -6 0 -5 58 -5 70 -1 6 3 60 10 108 14 17 2 35
7 39 10 3 4 12 7 19 7 7 0 25 5 41 11 15 6 29 10 31 9 5 -2 147 75 150 83 2 4
8 7 13 7 6 0 15 5 22 10 7 6 21 18 33 28 78 64 164 159 164 180 0 6 3 12 8 14
11 5 51 96 69 158 15 53 25 263 14 285 -3 6 -6 15 -7 20 -7 43 -28 132 -34
144 -5 9 -19 39 -31 66 -12 28 -25 52 -28 55 -3 3 -12 17 -19 31 -27 51 -202
218 -202 192 0 -4 -4 -3 -8 2 -9 13 -70 43 -104 51 -16 3 -28 9 -28 13 0 7
-53 12 -168 14 l-82 2 -1 70 c-1 66 -3 83 -8 95 -4 9 -11 44 -13 65 -1 11 -5
25 -9 30 -4 6 -10 22 -12 35 -5 24 -37 100 -47 110 -3 3 -6 11 -8 18 -4 22
-34 62 -45 62 -6 0 -7 3 -4 6 10 10 -71 114 -89 114 -2 0 -17 12 -33 28 -28
26 -171 107 -171 97 0 -3 -9 -1 -20 5 -24 13 -62 20 -140 26 -30 3 -65 6 -77
8 -13 2 -24 2 -25 1z"/>
</g>
</svg>
